<?xml version="1.0" encoding="UTF-8" standalone="no"?>
<!-- Created with Inkscape (http://www.inkscape.org/) -->

<svg
   xmlns:dc="http://purl.org/dc/elements/1.1/"
   xmlns:cc="http://creativecommons.org/ns#"
   xmlns:rdf="http://www.w3.org/1999/02/22-rdf-syntax-ns#"
   xmlns:svg="http://www.w3.org/2000/svg"
   xmlns="http://www.w3.org/2000/svg"
   xmlns:sodipodi="http://sodipodi.sourceforge.net/DTD/sodipodi-0.dtd"
   xmlns:inkscape="http://www.inkscape.org/namespaces/inkscape"
   id="svg2"
   version="1.1"
   inkscape:version="0.91 r13725"
   xml:space="preserve"
   width="303.5069"
   height="218.1131"
   viewBox="0 0 303.5069 218.1131"
   sodipodi:docname="kizilcec-3.svg"><metadata
     id="metadata8"><rdf:RDF><cc:Work
         rdf:about=""><dc:format>image/svg+xml</dc:format><dc:type
           rdf:resource="http://purl.org/dc/dcmitype/StillImage" /><dc:title></dc:title></cc:Work></rdf:RDF></metadata><defs
     id="defs6"><clipPath
       clipPathUnits="userSpaceOnUse"
       id="clipPath22"><path
         d="M 0,0 504,0 504,360 0,360 0,0 Z"
         id="path24"
         inkscape:connector-curvature="0" /></clipPath><clipPath
       clipPathUnits="userSpaceOnUse"
       id="clipPath36"><path
         d="m 1048.7,2469 3682,0 0,987 -3682,0 0,-987 z"
         id="path38"
         inkscape:connector-curvature="0" /></clipPath><clipPath
       clipPathUnits="userSpaceOnUse"
       id="clipPath88"><path
         d="m 1048.7,1446.1 3682,0 0,986.9 -3682,0 0,-986.9 z"
         id="path90"
         inkscape:connector-curvature="0" /></clipPath><clipPath
       clipPathUnits="userSpaceOnUse"
       id="clipPath140"><path
         d="m 1048.7,423.102 3682,0 0,986.998 -3682,0 0,-986.998 z"
         id="path142"
         inkscape:connector-curvature="0" /></clipPath><clipPath
       clipPathUnits="userSpaceOnUse"
       id="clipPath252"><path
         d="m 4730.7,2469 165.3,0 0,987 -165.3,0 0,-987 z"
         id="path254"
         inkscape:connector-curvature="0" /></clipPath><clipPath
       clipPathUnits="userSpaceOnUse"
       id="clipPath270"><path
         d="m 4730.7,1446.1 165.3,0 0,986.9 -165.3,0 0,-986.9 z"
         id="path272"
         inkscape:connector-curvature="0" /></clipPath><clipPath
       clipPathUnits="userSpaceOnUse"
       id="clipPath288"><path
         d="m 4730.7,423.102 165.3,0 0,986.998 -165.3,0 0,-986.998 z"
         id="path290"
         inkscape:connector-curvature="0" /></clipPath><clipPath
       clipPathUnits="userSpaceOnUse"
       id="clipPath450"><path
         d="M 0,0 504,0 504,360 0,360 0,0 Z"
         id="path452"
         inkscape:connector-curvature="0" /></clipPath><clipPath
       clipPathUnits="userSpaceOnUse"
       id="clipPath464"><path
         d="m 1048.7,2469 3682,0 0,987 -3682,0 0,-987 z"
         id="path466"
         inkscape:connector-curvature="0" /></clipPath><clipPath
       clipPathUnits="userSpaceOnUse"
       id="clipPath516"><path
         d="m 1048.7,1446.1 3682,0 0,986.9 -3682,0 0,-986.9 z"
         id="path518"
         inkscape:connector-curvature="0" /></clipPath><clipPath
       clipPathUnits="userSpaceOnUse"
       id="clipPath568"><path
         d="m 1048.7,423.102 3682,0 0,986.998 -3682,0 0,-986.998 z"
         id="path570"
         inkscape:connector-curvature="0" /></clipPath><clipPath
       clipPathUnits="userSpaceOnUse"
       id="clipPath680"><path
         d="m 4730.7,2469 165.3,0 0,987 -165.3,0 0,-987 z"
         id="path682"
         inkscape:connector-curvature="0" /></clipPath><clipPath
       clipPathUnits="userSpaceOnUse"
       id="clipPath698"><path
         d="m 4730.7,1446.1 165.3,0 0,986.9 -165.3,0 0,-986.9 z"
         id="path700"
         inkscape:connector-curvature="0" /></clipPath><clipPath
       clipPathUnits="userSpaceOnUse"
       id="clipPath716"><path
         d="m 4730.7,423.102 165.3,0 0,986.998 -165.3,0 0,-986.998 z"
         id="path718"
         inkscape:connector-curvature="0" /></clipPath><clipPath
       clipPathUnits="userSpaceOnUse"
       id="clipPath784"><path
         d="M 0,0 504,0 504,360 0,360 0,0 Z"
         id="path786"
         inkscape:connector-curvature="0" /></clipPath><clipPath
       clipPathUnits="userSpaceOnUse"
       id="clipPath798"><path
         d="m 1048.7,2469 3682,0 0,987 -3682,0 0,-987 z"
         id="path800"
         inkscape:connector-curvature="0" /></clipPath><clipPath
       clipPathUnits="userSpaceOnUse"
       id="clipPath850"><path
         d="m 1048.7,1446.1 3682,0 0,986.9 -3682,0 0,-986.9 z"
         id="path852"
         inkscape:connector-curvature="0" /></clipPath><clipPath
       clipPathUnits="userSpaceOnUse"
       id="clipPath902"><path
         d="m 1048.7,423.102 3682,0 0,986.998 -3682,0 0,-986.998 z"
         id="path904"
         inkscape:connector-curvature="0" /></clipPath><clipPath
       clipPathUnits="userSpaceOnUse"
       id="clipPath1014"><path
         d="m 4730.7,2469 165.3,0 0,987 -165.3,0 0,-987 z"
         id="path1016"
         inkscape:connector-curvature="0" /></clipPath><clipPath
       clipPathUnits="userSpaceOnUse"
       id="clipPath1032"><path
         d="m 4730.7,1446.1 165.3,0 0,986.9 -165.3,0 0,-986.9 z"
         id="path1034"
         inkscape:connector-curvature="0" /></clipPath><clipPath
       clipPathUnits="userSpaceOnUse"
       id="clipPath1050"><path
         d="m 4730.7,423.102 165.3,0 0,986.998 -165.3,0 0,-986.998 z"
         id="path1052"
         inkscape:connector-curvature="0" /></clipPath></defs><sodipodi:namedview
     pagecolor="#ffffff"
     bordercolor="#666666"
     borderopacity="1"
     objecttolerance="10"
     gridtolerance="10"
     guidetolerance="10"
     inkscape:pageopacity="0"
     inkscape:pageshadow="2"
     inkscape:window-width="1920"
     inkscape:window-height="1048"
     id="namedview4"
     showgrid="false"
     fit-margin-top="2"
     fit-margin-left="2"
     fit-margin-right="2"
     fit-margin-bottom="2"
     inkscape:zoom="2.6970053"
     inkscape:cx="186.11141"
     inkscape:cy="83.928629"
     inkscape:window-x="1920"
     inkscape:window-y="0"
     inkscape:window-maximized="1"
     inkscape:current-layer="g10" /><g
     id="g10"
     inkscape:groupmode="layer"
     inkscape:label="kizilcec.2013"
     transform="matrix(1.25,0,0,-1.25,-18.956281,1019.9864)"><g
       id="g8193"
       transform="translate(-36.781538,75.936077)"><path
         inkscape:connector-curvature="0"
         id="path28"
         style="fill:#ffffff;fill-opacity:1;fill-rule:nonzero;stroke:none"
         d="m 53.798,567.414 239.10264,0 0,170.7876 -239.10264,0 0,-170.7876 z" /><path
         inkscape:connector-curvature="0"
         id="path30"
         style="fill:none;stroke:#ffffff;stroke-width:0.50287461;stroke-linecap:round;stroke-linejoin:round;stroke-miterlimit:10;stroke-dasharray:none;stroke-opacity:1"
         d="m 53.798,567.414 239.10264,0 0,170.7876 -239.10264,0 0,-170.7876 z" /><g
         transform="matrix(0.047441,0,0,0.047441,53.798,567.414)"
         id="g32"><g
           clip-path="url(#clipPath36)"
           id="g34"><path
             inkscape:connector-curvature="0"
             id="path40"
             style="fill:#ffffff;fill-opacity:1;fill-rule:nonzero;stroke:none"
             d="m 1048.7,2469 3682,0 0,987 -3682,0 0,-987 z" /><path
             inkscape:connector-curvature="0"
             id="path42"
             style="fill:none;stroke:#e5e5e5;stroke-width:4.30000019;stroke-linecap:butt;stroke-linejoin:round;stroke-miterlimit:10;stroke-dasharray:none;stroke-opacity:1"
             d="m 1048.7,2610 3682,0" /><path
             inkscape:connector-curvature="0"
             id="path44"
             style="fill:none;stroke:#e5e5e5;stroke-width:4.30000019;stroke-linecap:butt;stroke-linejoin:round;stroke-miterlimit:10;stroke-dasharray:none;stroke-opacity:1"
             d="m 1048.7,2845 3682,0" /><path
             inkscape:connector-curvature="0"
             id="path46"
             style="fill:none;stroke:#e5e5e5;stroke-width:4.30000019;stroke-linecap:butt;stroke-linejoin:round;stroke-miterlimit:10;stroke-dasharray:none;stroke-opacity:1"
             d="m 1048.7,3080 3682,0" /><path
             inkscape:connector-curvature="0"
             id="path48"
             style="fill:none;stroke:#e5e5e5;stroke-width:4.30000019;stroke-linecap:butt;stroke-linejoin:round;stroke-miterlimit:10;stroke-dasharray:none;stroke-opacity:1"
             d="m 1048.7,3315 3682,0" /><path
             inkscape:connector-curvature="0"
             id="path50"
             style="fill:#000000;fill-opacity:1;fill-rule:nonzero;stroke:none"
             d="m 3713.9,3315 c 0,20.54 -16.66,37.2 -37.2,37.2 -20.54,0 -37.2,-16.66 -37.2,-37.2 0,-20.54 16.66,-37.2 37.2,-37.2 20.54,0 37.2,16.66 37.2,37.2" /><path
             inkscape:connector-curvature="0"
             id="path52"
             style="fill:#000000;fill-opacity:1;fill-rule:nonzero;stroke:none"
             d="m 3178.8,2845 c 0,20.54 -16.66,37.2 -37.2,37.2 -20.54,0 -37.2,-16.66 -37.2,-37.2 0,-20.54 16.66,-37.2 37.2,-37.2 20.54,0 37.2,16.66 37.2,37.2" /><path
             inkscape:connector-curvature="0"
             id="path54"
             style="fill:#000000;fill-opacity:1;fill-rule:nonzero;stroke:none"
             d="m 2893.9,2610 c 0,20.54 -16.66,37.2 -37.2,37.2 -20.54,0 -37.2,-16.66 -37.2,-37.2 0,-20.54 16.66,-37.2 37.2,-37.2 20.54,0 37.2,16.66 37.2,37.2" /><path
             inkscape:connector-curvature="0"
             id="path56"
             style="fill:#000000;fill-opacity:1;fill-rule:nonzero;stroke:none"
             d="m 3868.2,3080 c 0,20.54 -16.66,37.2 -37.2,37.2 -20.54,0 -37.2,-16.66 -37.2,-37.2 0,-20.54 16.66,-37.2 37.2,-37.2 20.54,0 37.2,16.66 37.2,37.2" /><path
             inkscape:connector-curvature="0"
             id="path58"
             style="fill:none;stroke:#000000;stroke-width:21.29999924;stroke-linecap:butt;stroke-linejoin:round;stroke-miterlimit:1;stroke-dasharray:none;stroke-opacity:1"
             d="m 2960.8,2610 0,0" /><path
             inkscape:connector-curvature="0"
             id="path60"
             style="fill:none;stroke:#000000;stroke-width:21.29999924;stroke-linecap:butt;stroke-linejoin:round;stroke-miterlimit:1;stroke-dasharray:none;stroke-opacity:1"
             d="m 2960.8,2610 -208.2,0" /><path
             inkscape:connector-curvature="0"
             id="path62"
             style="fill:none;stroke:#000000;stroke-width:21.29999924;stroke-linecap:butt;stroke-linejoin:round;stroke-miterlimit:1;stroke-dasharray:none;stroke-opacity:1"
             d="m 2752.6,2610 0,0" /><path
             inkscape:connector-curvature="0"
             id="path64"
             style="fill:none;stroke:#000000;stroke-width:21.29999924;stroke-linecap:butt;stroke-linejoin:round;stroke-miterlimit:1;stroke-dasharray:none;stroke-opacity:1"
             d="m 3217.1,2845 0,0" /><path
             inkscape:connector-curvature="0"
             id="path66"
             style="fill:none;stroke:#000000;stroke-width:21.29999924;stroke-linecap:butt;stroke-linejoin:round;stroke-miterlimit:1;stroke-dasharray:none;stroke-opacity:1"
             d="m 3217.1,2845 -150.9,0" /><path
             inkscape:connector-curvature="0"
             id="path68"
             style="fill:none;stroke:#000000;stroke-width:21.29999924;stroke-linecap:butt;stroke-linejoin:round;stroke-miterlimit:1;stroke-dasharray:none;stroke-opacity:1"
             d="m 3066.2,2845 0,0" /><path
             inkscape:connector-curvature="0"
             id="path70"
             style="fill:none;stroke:#000000;stroke-width:21.29999924;stroke-linecap:butt;stroke-linejoin:round;stroke-miterlimit:1;stroke-dasharray:none;stroke-opacity:1"
             d="m 3846.8,3080 0,0" /><path
             inkscape:connector-curvature="0"
             id="path72"
             style="fill:none;stroke:#000000;stroke-width:21.29999924;stroke-linecap:butt;stroke-linejoin:round;stroke-miterlimit:1;stroke-dasharray:none;stroke-opacity:1"
             d="m 3846.8,3080 -31.6,0" /><path
             inkscape:connector-curvature="0"
             id="path74"
             style="fill:none;stroke:#000000;stroke-width:21.29999924;stroke-linecap:butt;stroke-linejoin:round;stroke-miterlimit:1;stroke-dasharray:none;stroke-opacity:1"
             d="m 3815.2,3080 0,0" /><path
             inkscape:connector-curvature="0"
             id="path76"
             style="fill:none;stroke:#000000;stroke-width:21.29999924;stroke-linecap:butt;stroke-linejoin:round;stroke-miterlimit:1;stroke-dasharray:none;stroke-opacity:1"
             d="m 3746.8,3315 0,0" /><path
             inkscape:connector-curvature="0"
             id="path78"
             style="fill:none;stroke:#000000;stroke-width:21.29999924;stroke-linecap:butt;stroke-linejoin:round;stroke-miterlimit:1;stroke-dasharray:none;stroke-opacity:1"
             d="m 3746.8,3315 -140.2,0" /><path
             inkscape:connector-curvature="0"
             id="path80"
             style="fill:none;stroke:#000000;stroke-width:21.29999924;stroke-linecap:butt;stroke-linejoin:round;stroke-miterlimit:1;stroke-dasharray:none;stroke-opacity:1"
             d="m 3606.6,3315 0,0" /><path
             inkscape:connector-curvature="0"
             id="path82"
             style="fill:none;stroke:#7f7f7f;stroke-width:10.60000038;stroke-linecap:round;stroke-linejoin:round;stroke-miterlimit:10;stroke-dasharray:none;stroke-opacity:1"
             d="m 1048.7,2469 3682,0 0,987 -3682,0 0,-987 z" /></g></g><g
         transform="matrix(0.047441,0,0,0.047441,53.798,567.414)"
         id="g84"><g
           clip-path="url(#clipPath88)"
           id="g86"><path
             inkscape:connector-curvature="0"
             id="path92"
             style="fill:#ffffff;fill-opacity:1;fill-rule:nonzero;stroke:none"
             d="m 1048.7,1446.1 3682,0 0,987 -3682,0 0,-987 z" /><path
             inkscape:connector-curvature="0"
             id="path94"
             style="fill:none;stroke:#e5e5e5;stroke-width:4.30000019;stroke-linecap:butt;stroke-linejoin:round;stroke-miterlimit:10;stroke-dasharray:none;stroke-opacity:1"
             d="m 1048.7,1587.1 3682,0" /><path
             inkscape:connector-curvature="0"
             id="path96"
             style="fill:none;stroke:#e5e5e5;stroke-width:4.30000019;stroke-linecap:butt;stroke-linejoin:round;stroke-miterlimit:10;stroke-dasharray:none;stroke-opacity:1"
             d="m 1048.7,1822 3682,0" /><path
             inkscape:connector-curvature="0"
             id="path98"
             style="fill:none;stroke:#e5e5e5;stroke-width:4.30000019;stroke-linecap:butt;stroke-linejoin:round;stroke-miterlimit:10;stroke-dasharray:none;stroke-opacity:1"
             d="m 1048.7,2057 3682,0" /><path
             inkscape:connector-curvature="0"
             id="path100"
             style="fill:none;stroke:#e5e5e5;stroke-width:4.30000019;stroke-linecap:butt;stroke-linejoin:round;stroke-miterlimit:10;stroke-dasharray:none;stroke-opacity:1"
             d="m 1048.7,2292 3682,0" /><path
             inkscape:connector-curvature="0"
             id="path102"
             style="fill:#000000;fill-opacity:1;fill-rule:nonzero;stroke:none"
             d="m 2347.8,2292 c 0,20.54 -16.66,37.2 -37.2,37.2 -20.54,0 -37.2,-16.66 -37.2,-37.2 0,-20.54 16.66,-37.2 37.2,-37.2 20.54,0 37.2,16.66 37.2,37.2" /><path
             inkscape:connector-curvature="0"
             id="path104"
             style="fill:#000000;fill-opacity:1;fill-rule:nonzero;stroke:none"
             d="m 2227.8,1822 c 0,20.54 -16.66,37.2 -37.2,37.2 -20.54,0 -37.2,-16.66 -37.2,-37.2 0,-20.54 16.66,-37.2 37.2,-37.2 20.54,0 37.2,16.66 37.2,37.2" /><path
             inkscape:connector-curvature="0"
             id="path106"
             style="fill:#000000;fill-opacity:1;fill-rule:nonzero;stroke:none"
             d="m 1701.7,1587.1 c 0,20.54 -16.66,37.2 -37.2,37.2 -20.54,0 -37.2,-16.66 -37.2,-37.2 0,-20.54 16.66,-37.2 37.2,-37.2 20.54,0 37.2,16.66 37.2,37.2" /><path
             inkscape:connector-curvature="0"
             id="path108"
             style="fill:#000000;fill-opacity:1;fill-rule:nonzero;stroke:none"
             d="m 3547.3,2057 c 0,20.54 -16.66,37.2 -37.2,37.2 -20.54,0 -37.2,-16.66 -37.2,-37.2 0,-20.54 16.66,-37.2 37.2,-37.2 20.54,0 37.2,16.66 37.2,37.2" /><path
             inkscape:connector-curvature="0"
             id="path110"
             style="fill:none;stroke:#000000;stroke-width:21.29999924;stroke-linecap:butt;stroke-linejoin:round;stroke-miterlimit:1;stroke-dasharray:none;stroke-opacity:1"
             d="m 1882.9,1587.1 0,0" /><path
             inkscape:connector-curvature="0"
             id="path112"
             style="fill:none;stroke:#000000;stroke-width:21.29999924;stroke-linecap:butt;stroke-linejoin:round;stroke-miterlimit:1;stroke-dasharray:none;stroke-opacity:1"
             d="m 1882.9,1587.1 -436.8,0" /><path
             inkscape:connector-curvature="0"
             id="path114"
             style="fill:none;stroke:#000000;stroke-width:21.29999924;stroke-linecap:butt;stroke-linejoin:round;stroke-miterlimit:1;stroke-dasharray:none;stroke-opacity:1"
             d="m 1446.1,1587.1 0,0" /><path
             inkscape:connector-curvature="0"
             id="path116"
             style="fill:none;stroke:#000000;stroke-width:21.29999924;stroke-linecap:butt;stroke-linejoin:round;stroke-miterlimit:1;stroke-dasharray:none;stroke-opacity:1"
             d="m 2398.6,1822 0,0" /><path
             inkscape:connector-curvature="0"
             id="path118"
             style="fill:none;stroke:#000000;stroke-width:21.29999924;stroke-linecap:butt;stroke-linejoin:round;stroke-miterlimit:1;stroke-dasharray:none;stroke-opacity:1"
             d="m 2398.6,1822 -416.1,0" /><path
             inkscape:connector-curvature="0"
             id="path120"
             style="fill:none;stroke:#000000;stroke-width:21.29999924;stroke-linecap:butt;stroke-linejoin:round;stroke-miterlimit:1;stroke-dasharray:none;stroke-opacity:1"
             d="m 1982.5,1822 0,0" /><path
             inkscape:connector-curvature="0"
             id="path122"
             style="fill:none;stroke:#000000;stroke-width:21.29999924;stroke-linecap:butt;stroke-linejoin:round;stroke-miterlimit:1;stroke-dasharray:none;stroke-opacity:1"
             d="m 3549.4,2057 0,0" /><path
             inkscape:connector-curvature="0"
             id="path124"
             style="fill:none;stroke:#000000;stroke-width:21.29999924;stroke-linecap:butt;stroke-linejoin:round;stroke-miterlimit:1;stroke-dasharray:none;stroke-opacity:1"
             d="m 3549.4,2057 -78.6,0" /><path
             inkscape:connector-curvature="0"
             id="path126"
             style="fill:none;stroke:#000000;stroke-width:21.29999924;stroke-linecap:butt;stroke-linejoin:round;stroke-miterlimit:1;stroke-dasharray:none;stroke-opacity:1"
             d="m 3470.8,2057 0,0" /><path
             inkscape:connector-curvature="0"
             id="path128"
             style="fill:none;stroke:#000000;stroke-width:21.29999924;stroke-linecap:butt;stroke-linejoin:round;stroke-miterlimit:1;stroke-dasharray:none;stroke-opacity:1"
             d="m 2455,2292 0,0" /><path
             inkscape:connector-curvature="0"
             id="path130"
             style="fill:none;stroke:#000000;stroke-width:21.29999924;stroke-linecap:butt;stroke-linejoin:round;stroke-miterlimit:1;stroke-dasharray:none;stroke-opacity:1"
             d="m 2455,2292 -288.7,0" /><path
             inkscape:connector-curvature="0"
             id="path132"
             style="fill:none;stroke:#000000;stroke-width:21.29999924;stroke-linecap:butt;stroke-linejoin:round;stroke-miterlimit:1;stroke-dasharray:none;stroke-opacity:1"
             d="m 2166.3,2292 0,0" /><path
             inkscape:connector-curvature="0"
             id="path134"
             style="fill:none;stroke:#7f7f7f;stroke-width:10.60000038;stroke-linecap:round;stroke-linejoin:round;stroke-miterlimit:10;stroke-dasharray:none;stroke-opacity:1"
             d="m 1048.7,1446.1 3682,0 0,987 -3682,0 0,-987 z" /></g></g><g
         transform="matrix(0.047441,0,0,0.047441,53.798,567.414)"
         id="g136"><g
           clip-path="url(#clipPath140)"
           id="g138"><path
             inkscape:connector-curvature="0"
             id="path144"
             style="fill:#ffffff;fill-opacity:1;fill-rule:nonzero;stroke:none"
             d="m 1048.7,423.102 3682,0 0,987 -3682,0 0,-987 z" /><path
             inkscape:connector-curvature="0"
             id="path146"
             style="fill:none;stroke:#e5e5e5;stroke-width:4.30000019;stroke-linecap:butt;stroke-linejoin:round;stroke-miterlimit:10;stroke-dasharray:none;stroke-opacity:1"
             d="m 1048.7,564.102 3682,0" /><path
             inkscape:connector-curvature="0"
             id="path148"
             style="fill:none;stroke:#e5e5e5;stroke-width:4.30000019;stroke-linecap:butt;stroke-linejoin:round;stroke-miterlimit:10;stroke-dasharray:none;stroke-opacity:1"
             d="m 1048.7,799.102 3682,0" /><path
             inkscape:connector-curvature="0"
             id="path150"
             style="fill:none;stroke:#e5e5e5;stroke-width:4.30000019;stroke-linecap:butt;stroke-linejoin:round;stroke-miterlimit:10;stroke-dasharray:none;stroke-opacity:1"
             d="m 1048.7,1034.1 3682,0" /><path
             inkscape:connector-curvature="0"
             id="path152"
             style="fill:none;stroke:#e5e5e5;stroke-width:4.30000019;stroke-linecap:butt;stroke-linejoin:round;stroke-miterlimit:10;stroke-dasharray:none;stroke-opacity:1"
             d="m 1048.7,1269.1 3682,0" /><path
             inkscape:connector-curvature="0"
             id="path154"
             style="fill:#000000;fill-opacity:1;fill-rule:nonzero;stroke:none"
             d="m 2681.3,1269.1 c 0,20.54 -16.66,37.2 -37.2,37.2 -20.54,0 -37.2,-16.66 -37.2,-37.2 0,-20.54 16.66,-37.2 37.2,-37.2 20.54,0 37.2,16.66 37.2,37.2" /><path
             inkscape:connector-curvature="0"
             id="path156"
             style="fill:#000000;fill-opacity:1;fill-rule:nonzero;stroke:none"
             d="m 1732.6,799.102 c 0,20.543 -16.66,37.199 -37.2,37.199 -20.54,0 -37.2,-16.656 -37.2,-37.199 0,-20.543 16.66,-37.204 37.2,-37.204 20.54,0 37.2,16.661 37.2,37.204" /><path
             inkscape:connector-curvature="0"
             id="path158"
             style="fill:#000000;fill-opacity:1;fill-rule:nonzero;stroke:none"
             d="m 1984.6,564.102 c 0,20.543 -16.66,37.199 -37.2,37.199 -20.54,0 -37.2,-16.656 -37.2,-37.199 0,-20.543 16.66,-37.204 37.2,-37.204 20.54,0 37.2,16.661 37.2,37.204" /><path
             inkscape:connector-curvature="0"
             id="path160"
             style="fill:#000000;fill-opacity:1;fill-rule:nonzero;stroke:none"
             d="m 2876.9,1034.1 c 0,20.54 -16.66,37.2 -37.2,37.2 -20.54,0 -37.2,-16.66 -37.2,-37.2 0,-20.54 16.66,-37.202 37.2,-37.202 20.54,0 37.2,16.662 37.2,37.202" /><path
             inkscape:connector-curvature="0"
             id="path162"
             style="fill:none;stroke:#000000;stroke-width:21.29999924;stroke-linecap:butt;stroke-linejoin:round;stroke-miterlimit:1;stroke-dasharray:none;stroke-opacity:1"
             d="m 2024.3,564.102 0,0" /><path
             inkscape:connector-curvature="0"
             id="path164"
             style="fill:none;stroke:#000000;stroke-width:21.29999924;stroke-linecap:butt;stroke-linejoin:round;stroke-miterlimit:1;stroke-dasharray:none;stroke-opacity:1"
             d="m 2024.3,564.102 -153.7,0" /><path
             inkscape:connector-curvature="0"
             id="path166"
             style="fill:none;stroke:#000000;stroke-width:21.29999924;stroke-linecap:butt;stroke-linejoin:round;stroke-miterlimit:1;stroke-dasharray:none;stroke-opacity:1"
             d="m 1870.6,564.102 0,0" /><path
             inkscape:connector-curvature="0"
             id="path168"
             style="fill:none;stroke:#000000;stroke-width:21.29999924;stroke-linecap:butt;stroke-linejoin:round;stroke-miterlimit:1;stroke-dasharray:none;stroke-opacity:1"
             d="m 1795.2,799.102 0,0" /><path
             inkscape:connector-curvature="0"
             id="path170"
             style="fill:none;stroke:#000000;stroke-width:21.29999924;stroke-linecap:butt;stroke-linejoin:round;stroke-miterlimit:1;stroke-dasharray:none;stroke-opacity:1"
             d="m 1795.2,799.102 -199.5,0" /><path
             inkscape:connector-curvature="0"
             id="path172"
             style="fill:none;stroke:#000000;stroke-width:21.29999924;stroke-linecap:butt;stroke-linejoin:round;stroke-miterlimit:1;stroke-dasharray:none;stroke-opacity:1"
             d="m 1595.7,799.102 0,0" /><path
             inkscape:connector-curvature="0"
             id="path174"
             style="fill:none;stroke:#000000;stroke-width:21.29999924;stroke-linecap:butt;stroke-linejoin:round;stroke-miterlimit:1;stroke-dasharray:none;stroke-opacity:1"
             d="m 2901.5,1034.1 0,0" /><path
             inkscape:connector-curvature="0"
             id="path176"
             style="fill:none;stroke:#000000;stroke-width:21.29999924;stroke-linecap:butt;stroke-linejoin:round;stroke-miterlimit:1;stroke-dasharray:none;stroke-opacity:1"
             d="m 2901.5,1034.1 -123.5,0" /><path
             inkscape:connector-curvature="0"
             id="path178"
             style="fill:none;stroke:#000000;stroke-width:21.29999924;stroke-linecap:butt;stroke-linejoin:round;stroke-miterlimit:1;stroke-dasharray:none;stroke-opacity:1"
             d="m 2778,1034.1 0,0" /><path
             inkscape:connector-curvature="0"
             id="path180"
             style="fill:none;stroke:#000000;stroke-width:21.29999924;stroke-linecap:butt;stroke-linejoin:round;stroke-miterlimit:1;stroke-dasharray:none;stroke-opacity:1"
             d="m 2734.2,1269.1 0,0" /><path
             inkscape:connector-curvature="0"
             id="path182"
             style="fill:none;stroke:#000000;stroke-width:21.29999924;stroke-linecap:butt;stroke-linejoin:round;stroke-miterlimit:1;stroke-dasharray:none;stroke-opacity:1"
             d="m 2734.2,1269.1 -180.1,0" /><path
             inkscape:connector-curvature="0"
             id="path184"
             style="fill:none;stroke:#000000;stroke-width:21.29999924;stroke-linecap:butt;stroke-linejoin:round;stroke-miterlimit:1;stroke-dasharray:none;stroke-opacity:1"
             d="m 2554.1,1269.1 0,0" /><path
             inkscape:connector-curvature="0"
             id="path186"
             style="fill:none;stroke:#7f7f7f;stroke-width:10.60000038;stroke-linecap:round;stroke-linejoin:round;stroke-miterlimit:10;stroke-dasharray:none;stroke-opacity:1"
             d="m 1048.7,423.102 3682,0 0,987 -3682,0 0,-987 z" /></g></g><g
         transform="matrix(0.47441,0,0,0.47441,53.798,567.414)"
         id="g188"><text
           id="text190"
           style="font-variant:normal;font-weight:bold;font-size:12px;font-family:Helvetica;-inkscape-font-specification:Helvetica-Bold;writing-mode:lr-tb;fill:#000000;fill-opacity:1;fill-rule:nonzero;stroke:none"
           transform="matrix(1,0,0,-1,43.7695,256.69)"><tspan
             id="tspan192"
             sodipodi:role="line"
             y="0"
             x="0 8.0039997 14.676 25.344 32.675999 36.012001 39.348 46.68">Sampling</tspan><tspan
             id="tspan194"
             sodipodi:role="line"
             y="-23.5"
             x="-18 -9.3360004 -6 0.67199999 7.3439999 14.676 22.007999 28.560158 35.892159 39.228157 46.560158">Disengaging</tspan><tspan
             id="tspan196"
             sodipodi:role="line"
             y="-47"
             x="-11.9875 -3.3234999 4.0085001 14.6765 22.008499 25.3445 32.016499 36.012501 39.348499 46.6805">Completing</tspan><tspan
             id="tspan198"
             sodipodi:role="line"
             y="-70.5"
             x="5.3499999 13.653905 20.985905 28.317905 31.653906 35.649906 38.985905 46.317905">Auditing</tspan></text>
</g><path
         inkscape:connector-curvature="0"
         id="path200"
         style="fill:none;stroke:#000000;stroke-width:0.50287461;stroke-linecap:butt;stroke-linejoin:round;stroke-miterlimit:10;stroke-dasharray:none;stroke-opacity:1"
         d="m 101.52839,691.23501 2.02099,0" /><path
         inkscape:connector-curvature="0"
         id="path202"
         style="fill:none;stroke:#000000;stroke-width:0.50287461;stroke-linecap:butt;stroke-linejoin:round;stroke-miterlimit:10;stroke-dasharray:none;stroke-opacity:1"
         d="m 101.52839,702.38364 2.02099,0" /><path
         inkscape:connector-curvature="0"
         id="path204"
         style="fill:none;stroke:#000000;stroke-width:0.50287461;stroke-linecap:butt;stroke-linejoin:round;stroke-miterlimit:10;stroke-dasharray:none;stroke-opacity:1"
         d="m 101.52839,713.53228 2.02099,0" /><path
         inkscape:connector-curvature="0"
         id="path206"
         style="fill:none;stroke:#000000;stroke-width:0.50287461;stroke-linecap:butt;stroke-linejoin:round;stroke-miterlimit:10;stroke-dasharray:none;stroke-opacity:1"
         d="m 101.52839,724.68091 2.02099,0" /><g
         transform="matrix(0.47441,0,0,0.47441,53.798,567.414)"
         id="g208"><text
           id="text210"
           style="font-variant:normal;font-weight:bold;font-size:12px;font-family:Helvetica;-inkscape-font-specification:Helvetica-Bold;writing-mode:lr-tb;fill:#000000;fill-opacity:1;fill-rule:nonzero;stroke:none"
           transform="matrix(1,0,0,-1,43.7695,154.4)"><tspan
             id="tspan212"
             sodipodi:role="line"
             y="0"
             x="0 8.0039997 14.676 25.344 32.675999 36.012001 39.348 46.68">Sampling</tspan><tspan
             id="tspan214"
             sodipodi:role="line"
             y="-23.5"
             x="-18 -9.3360004 -6 0.67199999 7.3439999 14.676 22.007999 28.560158 35.892159 39.228157 46.560158">Disengaging</tspan><tspan
             id="tspan216"
             sodipodi:role="line"
             y="-47"
             x="-11.9875 -3.3234999 4.0085001 14.6765 22.008499 25.3445 32.016499 36.012501 39.348499 46.6805">Completing</tspan><tspan
             id="tspan218"
             sodipodi:role="line"
             y="-70.5"
             x="5.3499999 13.653905 20.985905 28.317905 31.653906 35.649906 38.985905 46.317905">Auditing</tspan></text>
</g><path
         inkscape:connector-curvature="0"
         id="path220"
         style="fill:none;stroke:#000000;stroke-width:0.50287461;stroke-linecap:butt;stroke-linejoin:round;stroke-miterlimit:10;stroke-dasharray:none;stroke-opacity:1"
         d="m 101.52839,642.70761 2.02099,0" /><path
         inkscape:connector-curvature="0"
         id="path222"
         style="fill:none;stroke:#000000;stroke-width:0.50287461;stroke-linecap:butt;stroke-linejoin:round;stroke-miterlimit:10;stroke-dasharray:none;stroke-opacity:1"
         d="m 101.52839,653.8515 2.02099,0" /><path
         inkscape:connector-curvature="0"
         id="path224"
         style="fill:none;stroke:#000000;stroke-width:0.50287461;stroke-linecap:butt;stroke-linejoin:round;stroke-miterlimit:10;stroke-dasharray:none;stroke-opacity:1"
         d="m 101.52839,665.00014 2.02099,0" /><path
         inkscape:connector-curvature="0"
         id="path226"
         style="fill:none;stroke:#000000;stroke-width:0.50287461;stroke-linecap:butt;stroke-linejoin:round;stroke-miterlimit:10;stroke-dasharray:none;stroke-opacity:1"
         d="m 101.52839,676.14877 2.02099,0" /><g
         transform="matrix(0.47441,0,0,0.47441,53.798,567.414)"
         id="g228"><text
           id="text230"
           style="font-variant:normal;font-weight:bold;font-size:12px;font-family:Helvetica;-inkscape-font-specification:Helvetica-Bold;writing-mode:lr-tb;fill:#000000;fill-opacity:1;fill-rule:nonzero;stroke:none"
           transform="matrix(1,0,0,-1,43.7695,52.1)"><tspan
             id="tspan232"
             sodipodi:role="line"
             y="0"
             x="0 8.0039997 14.676 25.344 32.675999 36.012001 39.348 46.68">Sampling</tspan><tspan
             id="tspan234"
             sodipodi:role="line"
             y="-23.5"
             x="-18 -9.3360004 -6 0.67199999 7.3439999 14.676 22.007999 28.560158 35.892159 39.228157 46.560158">Disengaging</tspan><tspan
             id="tspan236"
             sodipodi:role="line"
             y="-47"
             x="-11.9875 -3.3234999 4.0085001 14.6765 22.008499 25.3445 32.016499 36.012501 39.348499 46.6805">Completing</tspan><tspan
             id="tspan238"
             sodipodi:role="line"
             y="-70.5"
             x="5.3499999 13.653905 20.985905 28.317905 31.653906 35.649906 38.985905 46.317905">Auditing</tspan></text>
</g><path
         inkscape:connector-curvature="0"
         id="path240"
         style="fill:none;stroke:#000000;stroke-width:0.50287461;stroke-linecap:butt;stroke-linejoin:round;stroke-miterlimit:10;stroke-dasharray:none;stroke-opacity:1"
         d="m 101.52839,594.17556 2.02099,0" /><path
         inkscape:connector-curvature="0"
         id="path242"
         style="fill:none;stroke:#000000;stroke-width:0.50287461;stroke-linecap:butt;stroke-linejoin:round;stroke-miterlimit:10;stroke-dasharray:none;stroke-opacity:1"
         d="m 101.52839,605.3242 2.02099,0" /><path
         inkscape:connector-curvature="0"
         id="path244"
         style="fill:none;stroke:#000000;stroke-width:0.50287461;stroke-linecap:butt;stroke-linejoin:round;stroke-miterlimit:10;stroke-dasharray:none;stroke-opacity:1"
         d="m 101.52839,616.47274 2.02099,0" /><path
         inkscape:connector-curvature="0"
         id="path246"
         style="fill:none;stroke:#000000;stroke-width:0.50287461;stroke-linecap:butt;stroke-linejoin:round;stroke-miterlimit:10;stroke-dasharray:none;stroke-opacity:1"
         d="m 101.52839,627.62137 2.02099,0" /><g
         transform="matrix(0.047441,0,0,0.047441,53.798,567.414)"
         id="g248"><g
           clip-path="url(#clipPath252)"
           id="g250"><path
             inkscape:connector-curvature="0"
             id="path256"
             style="fill:#ffffff;fill-opacity:1;fill-rule:nonzero;stroke:none"
             d="m 4730.7,2469 165.301,0 0,987 -165.301,0 0,-987 z" /><path
             inkscape:connector-curvature="0"
             id="path258"
             style="fill:none;stroke:#7f7f7f;stroke-width:10.60000038;stroke-linecap:round;stroke-linejoin:round;stroke-miterlimit:10;stroke-dasharray:none;stroke-opacity:1"
             d="m 4730.7,2469 165.301,0 0,987 -165.301,0 0,-987 z" /><g
             transform="scale(10,10)"
             id="g260"><text
               id="text262"
               style="font-variant:normal;font-weight:bold;font-size:13px;font-family:Helvetica;-inkscape-font-specification:Helvetica-Bold;writing-mode:lr-tb;fill:#000000;fill-opacity:1;fill-rule:nonzero;stroke:none"
               transform="matrix(0,-1,-1,0,476.67,305.279)"><tspan
                 id="tspan264"
                 sodipodi:role="line"
                 y="0"
                 x="0 9.3859997">HS</tspan></text>
</g></g></g><g
         transform="matrix(0.047441,0,0,0.047441,53.798,567.414)"
         id="g266"><g
           clip-path="url(#clipPath270)"
           id="g268"><path
             inkscape:connector-curvature="0"
             id="path274"
             style="fill:#ffffff;fill-opacity:1;fill-rule:nonzero;stroke:none"
             d="m 4730.7,1446.1 165.301,0 0,987 -165.301,0 0,-987 z" /><path
             inkscape:connector-curvature="0"
             id="path276"
             style="fill:none;stroke:#7f7f7f;stroke-width:10.60000038;stroke-linecap:round;stroke-linejoin:round;stroke-miterlimit:10;stroke-dasharray:none;stroke-opacity:1"
             d="m 4730.7,1446.1 165.301,0 0,987 -165.301,0 0,-987 z" /><g
             transform="scale(10,10)"
             id="g278"><text
               id="text280"
               style="font-variant:normal;font-weight:bold;font-size:13px;font-family:Helvetica;-inkscape-font-specification:Helvetica-Bold;writing-mode:lr-tb;fill:#000000;fill-opacity:1;fill-rule:nonzero;stroke:none"
               transform="matrix(0,-1,-1,0,476.67,203.7)"><tspan
                 id="tspan282"
                 sodipodi:role="line"
                 y="0"
                 x="0 9.3859997">UG</tspan></text>
</g></g></g><g
         transform="matrix(0.047441,0,0,0.047441,53.798,567.414)"
         id="g284"><g
           clip-path="url(#clipPath288)"
           id="g286"><path
             inkscape:connector-curvature="0"
             id="path292"
             style="fill:#ffffff;fill-opacity:1;fill-rule:nonzero;stroke:none"
             d="m 4730.7,423.102 165.301,0 0,987 -165.301,0 0,-987 z" /><path
             inkscape:connector-curvature="0"
             id="path294"
             style="fill:none;stroke:#7f7f7f;stroke-width:10.60000038;stroke-linecap:round;stroke-linejoin:round;stroke-miterlimit:10;stroke-dasharray:none;stroke-opacity:1"
             d="m 4730.7,423.102 165.301,0 0,987 -165.301,0 0,-987 z" /><g
             transform="scale(10,10)"
             id="g296"><text
               id="text298"
               style="font-variant:normal;font-weight:bold;font-size:13px;font-family:Helvetica;-inkscape-font-specification:Helvetica-Bold;writing-mode:lr-tb;fill:#000000;fill-opacity:1;fill-rule:nonzero;stroke:none"
               transform="matrix(0,-1,-1,0,476.67,101.052)"><tspan
                 id="tspan300"
                 sodipodi:role="line"
                 y="0"
                 x="0 10.114">GS</tspan></text>
</g></g></g><path
         inkscape:connector-curvature="0"
         id="path302"
         style="fill:none;stroke:#000000;stroke-width:0.50287461;stroke-linecap:butt;stroke-linejoin:round;stroke-miterlimit:10;stroke-dasharray:none;stroke-opacity:1"
         d="m 111.48626,585.47014 0,2.01624" /><path
         inkscape:connector-curvature="0"
         id="path304"
         style="fill:none;stroke:#000000;stroke-width:0.50287461;stroke-linecap:butt;stroke-linejoin:round;stroke-miterlimit:10;stroke-dasharray:none;stroke-opacity:1"
         d="m 151.18488,585.47014 0,2.01624" /><path
         inkscape:connector-curvature="0"
         id="path306"
         style="fill:none;stroke:#000000;stroke-width:0.50287461;stroke-linecap:butt;stroke-linejoin:round;stroke-miterlimit:10;stroke-dasharray:none;stroke-opacity:1"
         d="m 190.88826,585.47014 0,2.01624" /><path
         inkscape:connector-curvature="0"
         id="path308"
         style="fill:none;stroke:#000000;stroke-width:0.50287461;stroke-linecap:butt;stroke-linejoin:round;stroke-miterlimit:10;stroke-dasharray:none;stroke-opacity:1"
         d="m 230.58689,585.47014 0,2.01624" /><path
         inkscape:connector-curvature="0"
         id="path310"
         style="fill:none;stroke:#000000;stroke-width:0.50287461;stroke-linecap:butt;stroke-linejoin:round;stroke-miterlimit:10;stroke-dasharray:none;stroke-opacity:1"
         d="m 270.28552,585.47014 0,2.01624" /><g
         transform="matrix(0.47441,0,0,0.47441,53.798,567.414)"
         id="g312"><text
           id="text314"
           style="font-variant:normal;font-weight:bold;font-size:13px;font-family:Helvetica;-inkscape-font-specification:Helvetica-Bold;writing-mode:lr-tb;fill:#000000;fill-opacity:1;fill-rule:nonzero;stroke:none"
           transform="matrix(1,0,0,-1,112.565,25.8898)"><tspan
             id="tspan316"
             sodipodi:role="line"
             y="0"
             x="0 7.2280002 10.842 83.680092 90.908089 94.522087 167.37032 174.59831 178.21233 251.05002 258.27802 261.89203 334.7301 341.9581 345.57211">3.03.54.04.55.0</tspan></text>
<text
           id="text318"
           style="font-variant:normal;font-weight:bold;font-size:16px;font-family:Helvetica;-inkscape-font-specification:Helvetica-Bold;writing-mode:lr-tb;fill:#000000;fill-opacity:1;fill-rule:nonzero;stroke:none"
           transform="matrix(1,0,0,-1,216.932,7.2)"><tspan
             id="tspan320"
             sodipodi:role="line"
             y="0"
             x="0 12.448 21.344 30.24 36.464001 45.360001 49.807999 54.256001 58.703999 69.375999 78.272003 88.047997 96.944 103.168 107.616 116.512 126.288 135.18401">Overall Experience</tspan></text>
</g></g></g></svg>